<svg width="50.000000" height="50.000000" viewBox="0 0 50 50" fill="none" xmlns="http://www.w3.org/2000/svg" xmlns:xlink="http://www.w3.org/1999/xlink">
	<desc>
			Created with Pixso.
	</desc>
	<defs>
		<clipPath id="clip2_6">
			<rect id="lets-icons:video-fill" width="50.000000" height="50.000000" transform="translate(-0.333008 0.000000)" fill="white" fill-opacity="0"/>
		</clipPath>
	</defs>
	<rect id="lets-icons:video-fill" width="50.000000" height="50.000000" transform="translate(-0.333008 0.000000)" fill="#FFFFFF" fill-opacity="0"/>
	<g clip-path="url(#clip2_6)">
		<path id="Vector" d="M24.66 43.75C27.12 43.75 29.56 43.26 31.84 42.32C34.11 41.38 36.18 39.99 37.92 38.25C39.66 36.51 41.04 34.45 41.98 32.17C42.93 29.9 43.41 27.46 43.41 25C43.41 22.53 42.93 20.09 41.98 17.82C41.04 15.54 39.66 13.48 37.92 11.74C36.18 10 34.11 8.61 31.84 7.67C29.56 6.73 27.12 6.25 24.66 6.25C19.69 6.25 14.92 8.22 11.4 11.74C7.89 15.25 5.91 20.02 5.91 25C5.91 29.97 7.89 34.74 11.4 38.25C14.92 41.77 19.69 43.75 24.66 43.75ZM22.13 16.64L33.88 23.17C34.21 23.35 34.48 23.62 34.67 23.94C34.86 24.26 34.96 24.62 34.96 25C34.96 25.37 34.86 25.73 34.67 26.05C34.48 26.37 34.21 26.64 33.88 26.82L22.13 33.35C21.75 33.56 21.32 33.67 20.88 33.66C20.45 33.66 20.02 33.54 19.64 33.32C19.27 33.1 18.96 32.78 18.74 32.4C18.53 32.03 18.41 31.6 18.41 31.16L18.41 18.83C18.41 18.39 18.53 17.96 18.74 17.59C18.96 17.21 19.27 16.89 19.64 16.67C20.02 16.45 20.45 16.33 20.88 16.33C21.32 16.32 21.75 16.43 22.13 16.64Z" fill="#FFFFFF" fill-opacity="1.000000" fill-rule="evenodd"/>
	</g>
</svg>
