<svg width="31.000000" height="31.000000" viewBox="0 0 31 31" fill="none" xmlns="http://www.w3.org/2000/svg" xmlns:xlink="http://www.w3.org/1999/xlink">
	<desc>
			Created with Pixso.
	</desc>
	<defs>
		<clipPath id="clip2_11">
			<rect id="mdi:register" width="31.000000" height="31.000000" transform="translate(-0.555664 0.000000)" fill="white" fill-opacity="0"/>
		</clipPath>
	</defs>
	<rect id="mdi:register" width="31.000000" height="31.000000" transform="translate(-0.555664 0.000000)" fill="#FFFFFF" fill-opacity="0"/>
	<g clip-path="url(#clip2_11)">
		<path id="Vector" d="M18.81 18.08C15.37 18.08 8.48 19.8 8.48 23.25L8.48 25.83L29.15 25.83L29.15 23.25C29.15 19.8 22.26 18.08 18.81 18.08ZM7.19 12.91L7.19 9.04L4.61 9.04L4.61 12.91L0.73 12.91L0.73 15.5L4.61 15.5L4.61 19.37L7.19 19.37L7.19 15.5L11.06 15.5L11.06 12.91L7.19 12.91ZM18.81 15.5C20.19 15.5 21.5 14.95 22.47 13.98C23.44 13.01 23.98 11.7 23.98 10.33C23.98 8.96 23.44 7.64 22.47 6.67C21.5 5.71 20.19 5.16 18.81 5.16C17.44 5.16 16.13 5.71 15.16 6.67C14.19 7.64 13.65 8.96 13.65 10.33C13.65 11.7 14.19 13.01 15.16 13.98C16.13 14.95 17.44 15.5 18.81 15.5Z" fill="#F00C65" fill-opacity="1.000000" fill-rule="nonzero"/>
	</g>
</svg>
